<?xml version="1.0" encoding="utf-8"?>
<!-- Generator: Adobe Illustrator 27.0.1, SVG Export Plug-In . SVG Version: 6.00 Build 0)  -->
<svg version="1.1" id="Layer_1" xmlns="http://www.w3.org/2000/svg" xmlns:xlink="http://www.w3.org/1999/xlink" x="0px" y="0px"
	 viewBox="0 0 24 24" style="enable-background:new 0 0 24 24;" xml:space="preserve">
<style type="text/css">
	.st0{fill:#383D42;}
</style>
<path id="instagram-11_4_" class="st0" d="M12,3.22c2.86,0,3.2,0.01,4.33,0.06c2.9,0.13,4.26,1.51,4.39,4.39
	c0.05,1.13,0.06,1.47,0.06,4.33c0,2.86-0.01,3.2-0.06,4.33c-0.13,2.88-1.48,4.26-4.39,4.39c-1.13,0.05-1.47,0.06-4.33,0.06
	c-2.86,0-3.2-0.01-4.33-0.06c-2.91-0.13-4.26-1.52-4.39-4.39C3.24,15.2,3.22,14.86,3.22,12c0-2.86,0.01-3.2,0.06-4.33
	C3.42,4.8,4.77,3.42,7.67,3.29C8.8,3.24,9.14,3.22,12,3.22z M12,1.3c-2.91,0-3.27,0.01-4.41,0.06C3.7,1.54,1.54,3.69,1.36,7.59
	C1.31,8.73,1.3,9.09,1.3,12c0,2.91,0.01,3.27,0.06,4.41c0.18,3.89,2.34,6.05,6.23,6.23C8.73,22.69,9.09,22.7,12,22.7
	c2.91,0,3.27-0.01,4.41-0.06c3.88-0.18,6.05-2.33,6.23-6.23c0.05-1.14,0.06-1.51,0.06-4.41c0-2.91-0.01-3.27-0.06-4.41
	c-0.18-3.88-2.33-6.05-6.23-6.23C15.27,1.31,14.91,1.3,12,1.3z M12,6.5c-3.04,0-5.5,2.46-5.5,5.5c0,3.04,2.46,5.5,5.5,5.5
	c3.04,0,5.5-2.46,5.5-5.5C17.5,8.96,15.04,6.5,12,6.5z M12,15.57c-1.97,0-3.57-1.6-3.57-3.57c0-1.97,1.6-3.57,3.57-3.57
	s3.57,1.6,3.57,3.57C15.57,13.97,13.97,15.57,12,15.57z M17.71,5C17,5,16.43,5.58,16.43,6.29S17,7.57,17.71,7.57
	C18.42,7.57,19,7,19,6.29S18.42,5,17.71,5z"/>
</svg>
